<?xml version="1.0" encoding="utf-8"?>
<!-- Generator: Adobe Illustrator 24.1.2, SVG Export Plug-In . SVG Version: 6.00 Build 0)  -->
<svg version="1.1" id="Layer_1" xmlns="http://www.w3.org/2000/svg" xmlns:xlink="http://www.w3.org/1999/xlink" x="0px" y="0px"
	 viewBox="0 0 491.6 132.4" enable-background="new 0 0 491.6 132.4" xml:space="preserve">
<g id="Layer_2_1_">
	<g id="Layer_1-2">
		<path fill="#2196F3" d="M70,116.3l-15.7,16.2c-5.1-5.4-10.1-10.8-15.3-16.1c-7.5-7.6-15-15.1-22.6-22.6C-5.1,72-5.5,38,15.5,16.6
			C36.8-5,71.6-5.6,93.1,15.3c21.9,21.3,22.4,55,1.3,77.4c-2.6,2.8-5,5.8-7.6,8.7L71.1,85.3c3-3.1,6.3-6.3,9.2-9.7
			c10-12,10.1-28.5,0.6-41c-9.3-11.8-25.4-15.8-39.2-9.8c-14.1,6.1-22,21.3-19,36.3c1.3,6.6,4.6,12.6,9.5,17.3
			c11.6,11.5,23.2,23,34.8,34.6C68,114.1,69,115.2,70,116.3z"/>
		<path fill="#2196F3" d="M54.8,43.6c6.1,0,11.1,5,11.2,11.2c0,6.1-4.8,11-10.9,11.1S44,61,44,54.9C43.9,48.8,48.8,43.8,54.8,43.6z"
			/>
		<path fill="#2196F3" d="M394.7,49.8c-1.1,0-2-0.8-2.2-1.8c-0.7-3.7-2.9-6.9-6.2-8.7c-3.6-2.2-7.8-3.3-12-3.2c-8,0-12.9,3-14.7,8.9
			c-0.4,1.2,0.3,2.4,1.5,2.8c0.2,0.1,0.4,0.1,0.6,0.1h4.7c1.2,0,2.2,1,2.2,2.2v3.6c0,1.2-1,2.2-2.2,2.2l0,0h-5.2
			c-1.2,0-2.2,1-2.2,2.2c0,0,0,0,0,0v39.4c0,1.2-1,2.2-2.2,2.2h-6.1c-1.2,0-2.2-1-2.2-2.2v0V58.1c0-1.2-1-2.2-2.2-2.2l0,0
			c-1.2,0-2.2-1-2.2-2.2c0,0,0,0,0,0v-3.6c0-1.2,1-2.2,2.2-2.2h0.1c1.1,0,2.1-0.9,2.2-2c0.5-5.6,3.5-10.6,8.3-13.6
			c4.7-3.3,10.4-5,17.3-5c6.8-0.2,13.4,1.7,19,5.5c5,3.2,8.3,8.6,9,14.5c0.1,1.2-0.7,2.3-1.9,2.4c-0.1,0-0.2,0-0.3,0L394.7,49.8z"/>
		<path fill="#2196F3" d="M428.3,55.9h-5.2c-1.2,0-2.2,1-2.2,2.2v39.4c0,1.2-1,2.2-2.2,2.2l0,0h-6c-1.2,0-2.2-1-2.2-2.2V76.7
			c0-1.2-1-2.2-2.2-2.2l0,0h-7.4c-1.2,0-2.2,1-2.2,2.2v6.2c0.1,3.7-1.4,7.3-4.1,9.8c-2.8,2.5-6.5,3.9-10.3,3.8
			c-4,0.2-7.9-1.4-10.7-4.2c-2.8-2.9-4.3-6.8-4.1-10.8c0-4.4,1.1-8,3.3-10.8c2.4-3.1,6.2-4.9,10.1-4.7h3.1c1.2,0,2.2-1,2.2-2.2
			c0,0,0,0,0,0v-5.6c0-1.2-1-2.2-2.2-2.2h-17.8c-1.2,0-2.2-1-2.2-2.2v-3.6c0-1.2,1-2.2,2.2-2.2h60.1c1.2,0,2.2,1,2.2,2.2
			c0,0,0,0,0,0v3.6C430.5,54.9,429.6,55.9,428.3,55.9C428.3,55.9,428.3,55.9,428.3,55.9z M388.2,76.7c0-1.2-1-2.2-2.2-2.2h-1.5
			c-3.1,0-4.7,2.1-4.7,6.2s1.5,6.1,4.6,6.1c2.6,0,3.9-1.5,3.9-4.5L388.2,76.7z M398.7,58.1v5.6c0,1.2,1,2.2,2.2,2.2l0,0h7.4
			c1.2,0,2.2-1,2.2-2.2c0,0,0,0,0,0v-5.6c0-1.2-1-2.2-2.2-2.2l0,0h-7.4C399.6,55.9,398.7,56.9,398.7,58.1z"/>
		<path fill="#2196F3" d="M489.4,55.9h-5.3c-1.2,0-2.2,1-2.2,2.2v39.4c0,1.2-1,2.2-2.2,2.2h-6.1c-1.2,0-2.2-1-2.2-2.2v-4.2
			c0-1.2-1-2.2-2.2-2.2c-0.5,0-1,0.2-1.4,0.5c-3.8,3.3-7.9,6.3-12.3,8.8c-5.6,3-12,4.6-18.4,4.5c-1.2,0-2.5-0.1-3.9-0.2
			c-1.1-0.1-2-1.1-2-2.2v-4.3c0-1.2,1-2.2,2.2-2.2c0.1,0,0.2,0,0.4,0c1,0.2,2.1,0.3,3.1,0.3c8.7,0,17.8-4.4,27.5-13.3
			c0.9-0.8,1-2.2,0.2-3.1c-3.3-4.1-8.3-6.4-13.5-6.4c-4.7-0.1-9.2,2.2-11.9,6.1c-0.7,1-2.1,1.2-3.1,0.5c-0.2-0.1-0.3-0.3-0.5-0.4
			l-4-5c-0.6-0.8-0.6-1.9,0-2.7c4.1-5.4,10-8.2,17.8-8.2c6.7-0.1,13.2,2.1,18.3,6.4c0.9,0.8,2.3,0.7,3.1-0.3
			c0.3-0.4,0.5-0.9,0.5-1.4V58.1c0-1.2-1-2.2-2.2-2.2H430c-1.2,0-2.2-1-2.2-2.2c0,0,0,0,0,0v-3.6c0-1.2,1-2.2,2.2-2.2h59.4
			c1.2,0,2.2,1,2.2,2.2c0,0,0,0,0,0v3.6C491.6,54.9,490.6,55.9,489.4,55.9C489.4,55.9,489.4,55.9,489.4,55.9z"/>
		<path fill="#393E67" d="M160.3,71.1h-13.5v20.6c0,2.9-0.7,5.2-2.1,6.7c-2.8,2.9-7.4,3-10.4,0.3c-0.1-0.1-0.2-0.2-0.3-0.3
			c-1.4-1.5-2-3.7-2-6.6v-56c0-3.2,0.7-5.6,2.2-6.9c1.5-1.4,3.9-2.1,7.1-2.1h18.9c4.3-0.1,8.7,0.3,12.9,1.3c2.9,0.8,5.5,2.2,7.7,4.1
			c2.2,1.9,3.9,4.3,4.9,7c1.2,3,1.7,6.2,1.7,9.4c0,7.4-2.3,13-6.9,16.8C176.2,69.1,169.4,71,160.3,71.1z M156.7,37.7h-9.9v22.2h9.9
			c2.9,0.1,5.9-0.3,8.7-1.1c2.1-0.6,4-1.8,5.3-3.6c1.3-1.9,1.9-4.2,1.8-6.5c0.1-2.9-0.9-5.7-2.8-7.8
			C167.7,38.8,163.3,37.7,156.7,37.7L156.7,37.7z"/>
		<path fill="#393E67" d="M226.5,93c-2.9,2.3-6.1,4.2-9.5,5.7c-3.3,1.3-6.8,2-10.3,1.9c-3.2,0.1-6.3-0.6-9.1-2.1
			c-2.5-1.3-4.6-3.2-6.1-5.6c-1.4-2.3-2.1-5-2.1-7.7c-0.1-3.5,1.2-6.9,3.5-9.5c2.6-2.7,6-4.6,9.7-5.3c0.9-0.2,3-0.7,6.4-1.3
			s6.3-1.3,8.8-1.9s5.1-1.3,7.9-2.1c-0.2-3.6-0.9-6.2-2.2-7.9s-3.9-2.5-7.9-2.5c-3.4,0-6,0.5-7.8,1.4c-1.8,1-3.4,2.5-4.5,4.3
			c-0.8,1.3-1.7,2.6-2.6,3.8c-0.5,0.6-1.6,0.9-3.3,0.9c-1.4,0-2.9-0.5-3.9-1.5c-1.1-0.9-1.7-2.3-1.7-3.8c0.1-2.5,0.9-5,2.5-6.9
			c2.1-2.5,4.8-4.5,7.9-5.6c4.3-1.6,8.8-2.3,13.3-2.2c6,0,10.6,0.7,14,2.1c3.2,1.2,5.8,3.6,7.2,6.7c1.4,3,2.1,7.1,2.1,12.1
			c0,3.2,0,5.9,0,8.1s0,4.7-0.1,7.4c0,2.7,0.4,5.4,1.3,8c0.6,1.7,1,3.5,1.3,5.3c-0.1,1.5-0.8,2.9-2,3.8c-1.2,1.1-2.8,1.7-4.4,1.7
			c-1.6-0.1-3.1-0.8-4.1-2C229.1,97,227.7,95.1,226.5,93z M225.6,73.4c-2.8,1-5.7,1.7-8.6,2.3c-3.8,0.8-6.4,1.4-7.9,1.8
			c-1.5,0.4-3,1.2-4.2,2.2c-1.3,1.2-2.1,2.9-2,4.6c0,2,0.8,3.9,2.3,5.2c1.7,1.5,3.9,2.3,6.1,2.2c2.6,0,5.1-0.6,7.4-1.7
			c2.1-1,3.8-2.6,5-4.5c1.2-2.1,1.8-5.4,1.8-10.1L225.6,73.4z"/>
		<path fill="#393E67" d="M263.4,81.1v11.3c0,2.8-0.6,4.8-1.9,6.2c-1.3,1.4-3.1,2.1-4.9,2.1c-1.8,0-3.6-0.7-4.8-2.1
			c-1.2-1.4-1.9-3.4-1.9-6.2V54.7c0-6.1,2.2-9.1,6.6-9.1c2.3,0,3.9,0.7,4.9,2.1c1.1,1.9,1.7,4.1,1.6,6.3c1.3-2.4,3-4.5,5-6.3
			c2-1.5,4.4-2.3,6.8-2.1c2.9,0,5.7,0.8,8.2,2.1c2.7,1.4,4,3.3,4,5.7c0,1.5-0.6,3-1.7,4.1c-1,1-2.3,1.6-3.7,1.6
			c-1.2-0.2-2.4-0.5-3.6-0.9c-1.6-0.6-3.3-0.9-5-0.9c-1.8-0.1-3.5,0.5-4.9,1.6c-1.4,1.2-2.4,2.9-2.9,4.6c-0.8,2.4-1.2,4.8-1.4,7.3
			C263.5,73.6,263.4,77,263.4,81.1z"/>
		<path fill="#393E67" d="M322.9,94.4l-12-19.6l-7.4,6.9v10.8c0.2,2.2-0.6,4.3-2,6c-1.2,1.3-2.9,2.1-4.7,2.1
			c-1.9,0.1-3.7-0.7-4.9-2.1c-1.2-1.4-1.8-3.4-1.8-6.2V34.6c0-3,0.6-5.3,1.7-6.9c1.2-1.6,3-2.5,5-2.4c1.9-0.1,3.8,0.7,5,2.1
			c1.2,1.4,1.8,3.5,1.8,6.3v32.8l15.2-16c1.3-1.5,2.8-2.8,4.3-4.1c1.1-0.7,2.3-1.1,3.6-1.1c1.5,0,3,0.6,4.1,1.6c1.1,1,1.7,2.5,1.7,4
			c0,2-1.8,4.6-5.5,7.9l-7.2,6.6l13.9,21.8c1,1.6,1.8,2.8,2.2,3.7c0.4,0.7,0.6,1.6,0.7,2.4c0.1,1.9-0.5,3.7-1.8,5.1
			c-1.2,1.3-2.9,1.9-4.6,1.9c-1.4,0.1-2.8-0.4-3.8-1.3C325.2,97.8,324,96.1,322.9,94.4z"/>
	</g>
</g>
</svg>
