<svg xmlns="http://www.w3.org/2000/svg" viewBox="0 0 491.6 132.42">
    <defs>
        <style>
            .cls-1{fill:#2196f3}.cls-2{fill:#393e67}
        </style>
    </defs>
    <g id="Layer_2" data-name="Layer 2">
        <g id="Layer_1-2" data-name="Layer 1">
            <path class="cls-1" d="m70 116.26-15.72 16.16C49.15 127 44.18 121.58 39 116.33c-7.46-7.61-15-15.09-22.57-22.64C-5.12 72-5.54 38 15.52 16.6 36.83-5 71.55-5.6 93.07 15.33c21.86 21.25 22.43 55.05 1.35 77.44-2.61 2.78-5 5.76-7.56 8.72l-15.8-16.22c3-3.14 6.29-6.26 9.18-9.74 10-12 10.14-28.51.6-40.95a33.06 33.06 0 0 0-39.18-9.8 32.7 32.7 0 0 0-19 36.35 33.2 33.2 0 0 0 9.49 17.3Q49.59 95.67 66.91 113c1.09 1.08 2.09 2.22 3.09 3.26Z"/>
            <path class="cls-1" d="M54.85 43.62A11.23 11.23 0 0 1 66 54.77a11 11 0 0 1-22 .15 11.19 11.19 0 0 1 10.85-11.3ZM394.7 49.84a2.2 2.2 0 0 1-2.17-1.84 12.56 12.56 0 0 0-6.2-8.7 22.47 22.47 0 0 0-12-3.19q-12.06 0-14.72 8.92a2.21 2.21 0 0 0 2.1 2.86h4.7a2.21 2.21 0 0 1 2.2 2.2v3.61a2.2 2.2 0 0 1-2.2 2.2h-5.18a2.2 2.2 0 0 0-2.2 2.2v39.43a2.21 2.21 0 0 1-2.2 2.2h-6.06a2.2 2.2 0 0 1-2.2-2.2V58.1a2.21 2.21 0 0 0-2.21-2.2 2.2 2.2 0 0 1-2.2-2.2v-3.64a2.21 2.21 0 0 1 2.2-2.2h.14a2.19 2.19 0 0 0 2.19-2 18 18 0 0 1 8.25-13.56q7-5 17.28-5a32.42 32.42 0 0 1 19 5.51 19.93 19.93 0 0 1 9 14.51 2.2 2.2 0 0 1-2.2 2.44Z"/>
            <path class="cls-1" d="M428.28 55.9h-5.17a2.21 2.21 0 0 0-2.21 2.2v39.43a2.2 2.2 0 0 1-2.2 2.2h-6.05a2.21 2.21 0 0 1-2.21-2.2V76.71a2.2 2.2 0 0 0-2.2-2.2h-7.38a2.21 2.21 0 0 0-2.2 2.2v6.17a12.62 12.62 0 0 1-4.11 9.8 14.68 14.68 0 0 1-10.26 3.75 14.34 14.34 0 0 1-10.7-4.19 14.75 14.75 0 0 1-4.11-10.79q0-6.61 3.3-10.79a12.23 12.23 0 0 1 10.13-4.74H386a2.2 2.2 0 0 0 2.2-2.2V58.1a2.21 2.21 0 0 0-2.2-2.2h-17.84a2.2 2.2 0 0 1-2.16-2.2v-3.64a2.21 2.21 0 0 1 2.21-2.2h60.12a2.2 2.2 0 0 1 2.2 2.2v3.64a2.19 2.19 0 0 1-2.25 2.2ZM388.2 76.71a2.21 2.21 0 0 0-2.2-2.2h-1.55c-3.15 0-4.73 2.08-4.73 6.22s1.54 6.12 4.62 6.12c2.57 0 3.86-1.5 3.86-4.48Zm10.46-18.61v5.62a2.2 2.2 0 0 0 2.2 2.2h7.38a2.19 2.19 0 0 0 2.2-2.2V58.1a2.2 2.2 0 0 0-2.2-2.2h-7.38a2.21 2.21 0 0 0-2.2 2.2Z"/>
            <path class="cls-1" d="M489.4 55.9h-5.29a2.21 2.21 0 0 0-2.2 2.2v39.43a2.21 2.21 0 0 1-2.2 2.2h-6.06a2.21 2.21 0 0 1-2.2-2.2v-4.15a2.2 2.2 0 0 0-3.61-1.69 78.35 78.35 0 0 1-12.25 8.81 37.67 37.67 0 0 1-18.39 4.5c-1.24 0-2.54-.06-3.92-.16a2.19 2.19 0 0 1-2-2.19v-4.33a2.2 2.2 0 0 1 2.57-2.17 19 19 0 0 0 3.15.28q13 0 27.46-13.35a2.19 2.19 0 0 0 .17-3.06 17.33 17.33 0 0 0-13.53-6.39 13.86 13.86 0 0 0-11.86 6.11 2.21 2.21 0 0 1-3.54.1l-4-5a2.22 2.22 0 0 1 0-2.71q6.15-8.15 17.84-8.15a27.73 27.73 0 0 1 18.3 6.39 2.2 2.2 0 0 0 3.61-1.69V58.1a2.21 2.21 0 0 0-2.2-2.2H430a2.2 2.2 0 0 1-2.2-2.2v-3.64a2.21 2.21 0 0 1 2.2-2.2h59.4a2.2 2.2 0 0 1 2.2 2.2v3.64a2.19 2.19 0 0 1-2.2 2.2Z"/>
            <path class="cls-2" d="M160.31 71.05h-13.5v20.59q0 4.41-2.08 6.69a7.33 7.33 0 0 1-10.62 0c-1.35-1.51-2-3.71-2-6.62V35.67q0-4.86 2.23-6.94c1.49-1.39 3.85-2.09 7.1-2.09h18.9a49.54 49.54 0 0 1 12.9 1.29 19.21 19.21 0 0 1 7.71 4.12 18.61 18.61 0 0 1 4.94 7.05 24.83 24.83 0 0 1 1.69 9.37q0 11.12-6.85 16.85t-20.42 5.73Zm-3.57-33.34h-9.93v22.22h9.93a29.52 29.52 0 0 0 8.7-1.09 10.23 10.23 0 0 0 5.34-3.57 10.68 10.68 0 0 0 1.83-6.5 11 11 0 0 0-2.83-7.84q-3.17-3.22-13.04-3.22ZM226.53 93a42.77 42.77 0 0 1-9.5 5.73 26.66 26.66 0 0 1-10.3 1.91 19.53 19.53 0 0 1-9.15-2.06A15.16 15.16 0 0 1 191.5 93a14.52 14.52 0 0 1-2.13-7.65 13.66 13.66 0 0 1 3.52-9.47 17.61 17.61 0 0 1 9.67-5.26c.86-.2 3-.65 6.4-1.34s6.33-1.33 8.76-1.91 5.07-1.28 7.91-2.11q-.24-5.35-2.16-7.86t-7.91-2.51q-5.16 0-7.76 1.44a12.59 12.59 0 0 0-4.47 4.32 43 43 0 0 1-2.63 3.79c-.51.62-1.61.92-3.3.92a5.79 5.79 0 0 1-3.94-1.46 4.78 4.78 0 0 1-1.66-3.75 11.43 11.43 0 0 1 2.53-6.94 18 18 0 0 1 7.89-5.56 35.43 35.43 0 0 1 13.34-2.18q8.94 0 14 2.1a13.09 13.09 0 0 1 7.22 6.68q2.12 4.56 2.11 12.1v8.09c0 2.22 0 4.68-.07 7.39a27.1 27.1 0 0 0 1.27 8 25.1 25.1 0 0 1 1.26 5.33 5 5 0 0 1-2 3.79 6.55 6.55 0 0 1-4.44 1.72 6 6 0 0 1-4.12-2 29.39 29.39 0 0 1-4.26-5.67Zm-.9-19.6a67.6 67.6 0 0 1-8.63 2.29q-5.68 1.22-7.87 1.78a10.89 10.89 0 0 0-4.17 2.23 5.74 5.74 0 0 0-2 4.64 6.9 6.9 0 0 0 2.33 5.24 8.63 8.63 0 0 0 6.1 2.16 15.81 15.81 0 0 0 7.42-1.74 11.68 11.68 0 0 0 5-4.54q1.83-3.08 1.83-10.12ZM263.37 81.07v11.31c0 2.75-.64 4.8-1.93 6.18a6.46 6.46 0 0 1-4.91 2.06 6.23 6.23 0 0 1-4.82-2.09q-1.87-2.09-1.88-6.15V54.67q0-9.12 6.6-9.12 3.38 0 4.86 2.13a11.78 11.78 0 0 1 1.64 6.3 23.68 23.68 0 0 1 5-6.3 10.34 10.34 0 0 1 6.83-2.13 17.48 17.48 0 0 1 8.24 2.13c2.68 1.42 4 3.31 4 5.65a5.4 5.4 0 0 1-1.71 4.1 5.34 5.34 0 0 1-3.7 1.61 17.45 17.45 0 0 1-3.6-.92 16.78 16.78 0 0 0-5-.92 7.35 7.35 0 0 0-4.86 1.57 10 10 0 0 0-2.93 4.64 31.84 31.84 0 0 0-1.44 7.31c-.25 2.83-.39 6.28-.39 10.35ZM322.89 94.41l-11.95-19.64-7.35 6.94v10.77a8.3 8.3 0 0 1-2 6 6.49 6.49 0 0 1-4.74 2.11 6.12 6.12 0 0 1-4.91-2.09q-1.78-2.09-1.79-6.15V34.63q0-4.52 1.74-6.87a5.79 5.79 0 0 1 5-2.36 6.19 6.19 0 0 1 5 2.14q1.83 2.13 1.83 6.3v32.84l15.24-16a36.18 36.18 0 0 1 4.31-4.07 5.93 5.93 0 0 1 3.62-1.09 5.83 5.83 0 0 1 4.11 1.64 5.33 5.33 0 0 1 1.69 4q0 3-5.51 7.94L320 65.74l13.89 21.83c1 1.62 1.76 2.85 2.21 3.69a5.27 5.27 0 0 1 .67 2.41 7.1 7.1 0 0 1-1.77 5.09 6.08 6.08 0 0 1-4.63 1.86 5.17 5.17 0 0 1-3.82-1.34 32.87 32.87 0 0 1-3.66-4.87Z"/>
        </g>
    </g>
</svg>
